<svg width="55" height="20" fill="none" xmlns="http://www.w3.org/2000/svg" iconsize="20" class="sc-jrcTuL gcXVMB"><g filter="url(#mTrustedShopCard_svg__a)"><rect x="1.947" y="1.479" width="55" height="17.742" rx="2.661" fill="#fff"></rect></g><path fill-rule="evenodd" clip-rule="evenodd" d="M52.09 16.516c1.026 0 1.857-.878 1.857-1.96V7.023c0-1.082-.831-1.96-1.857-1.96H19.23a4.192 4.192 0 0 0-4.19 4.131c-.002.11-.008.22-.02.33-.076.654-.415 3.119-1.309 4.364-.08.112-.152.313-.295.548-.148.242-.35.451-.43.58-.209.34-.463.618-.705.884-.19.209-.027.616.256.616H52.09Z" fill="#FFE7FB"></path><path d="m17.652 5.584-5.266-2.24a.526.526 0 0 0-.412 0l-5.267 2.24a.55.55 0 0 0-.331.509v4.482c0 3.75 2.212 5.364 5.6 6.78.13.055.277.055.407 0 3.388-1.416 5.6-3.03 5.6-6.78V6.093a.55.55 0 0 0-.33-.509Z" fill="#9F2089" stroke="#9F2089" stroke-width="0.881"></path><path d="M13.736 7.34a2.12 2.12 0 0 1 1.512.605c.418.4.625.878.62 1.442l-.017 2.652c-.002.316-.274.57-.61.57-.334-.001-.603-.258-.601-.575l.017-2.651a.813.813 0 0 0-.272-.63.901.901 0 0 0-.656-.26.924.924 0 0 0-.682.275.899.899 0 0 0-.258.635l-.014 2.613c-.002.32-.279.58-.618.578-.338-.002-.612-.264-.61-.585l.017-2.629a.876.876 0 0 0-.248-.625.929.929 0 0 0-.68-.28.929.929 0 0 0-.66.253.841.841 0 0 0-.275.625l-.017 2.65c-.002.318-.276.575-.612.573-.337-.003-.606-.262-.604-.58l.017-2.64c.003-.49.185-.97.529-1.333a2.147 2.147 0 0 1 1.63-.699c.607.005 1.127.212 1.542.633.428-.419.942-.62 1.55-.617Z" fill="#FF9D00"></path><path d="M26.378 7.897H21.7v.925h1.841v5.242h1.005V8.822h1.832v-.925Zm-.013 2v4.166h.951v-1.946c0-.978.467-1.375 1.102-1.375.114 0 .237.018.317.053V9.87a.763.763 0 0 0-.326-.061c-.494 0-.925.281-1.137.757h-.017v-.67h-.89Zm6.755 4.166V9.897h-.96v2.396c0 .625-.432 1.066-.978 1.066-.503 0-.793-.344-.793-.987V9.897h-.952v2.669c0 1.013.564 1.63 1.463 1.63.59 0 1.066-.282 1.294-.688h.045v.556h.88Zm2.713.133c.987 0 1.656-.529 1.656-1.375 0-1.665-2.281-.925-2.281-1.84 0-.274.211-.494.625-.494.379 0 .687.22.731.528l.89-.185c-.15-.634-.802-1.066-1.647-1.066-.925 0-1.55.511-1.55 1.287 0 1.665 2.28.925 2.28 1.84 0 .353-.237.591-.677.591-.432 0-.784-.229-.89-.599l-.872.176c.202.714.845 1.137 1.735 1.137Zm4.336-.044c.308 0 .572-.053.713-.124l-.105-.766a.89.89 0 0 1-.423.088c-.45 0-.67-.203-.67-.82v-1.823h1.154v-.81h-1.154v-1.33l-.96.184v1.146h-.758v.81h.758v1.982c0 1.084.59 1.463 1.445 1.463Zm5.15-1.102-.802-.238c-.185.38-.528.59-.978.59-.67 0-1.127-.475-1.215-1.17h3.162v-.239c-.017-1.436-.925-2.229-2.061-2.229-1.225 0-2.07.96-2.07 2.23 0 1.259.89 2.202 2.176 2.202.837 0 1.444-.397 1.788-1.146Zm-1.877-2.546c.538 0 1.005.335 1.049 1.075h-2.158c.105-.687.502-1.075 1.11-1.075Zm2.733 1.48c0 1.313.828 2.212 1.947 2.212.555 0 1.11-.23 1.383-.767h.026v.634h.881V7.897h-.96v2.537c-.22-.388-.687-.67-1.313-.67-1.119 0-1.964.89-1.964 2.22Zm.96 0c0-.784.45-1.383 1.18-1.383.723 0 1.163.573 1.163 1.383 0 .802-.44 1.366-1.163 1.366-.713 0-1.18-.582-1.18-1.365Z" fill="#9F2089"></path><defs><filter id="mTrustedShopCard_svg__a" x="0.173" y="0.591" width="58.548" height="21.291" filterUnits="userSpaceOnUse" color-interpolation-filters="sRGB"><feFlood flood-opacity="0" result="BackgroundImageFix"></feFlood><feColorMatrix in="SourceAlpha" values="0 0 0 0 0 0 0 0 0 0 0 0 0 0 0 0 0 0 127 0" result="hardAlpha"></feColorMatrix><feOffset dy="0.887"></feOffset><feGaussianBlur stdDeviation="0.887"></feGaussianBlur><feColorMatrix values="0 0 0 0 0 0 0 0 0 0 0 0 0 0 0 0 0 0 0.08 0"></feColorMatrix><feBlend in2="BackgroundImageFix" result="effect1_dropShadow_577_79438"></feBlend><feBlend in="SourceGraphic" in2="effect1_dropShadow_577_79438" result="shape"></feBlend></filter></defs></svg>